<?xml version="1.0" encoding="utf-8"?>
<!-- Generator: Adobe Illustrator 19.0.0, SVG Export Plug-In . SVG Version: 6.00 Build 0)  -->
<svg version="1.1" id="Layer_1" xmlns="http://www.w3.org/2000/svg" xmlns:xlink="http://www.w3.org/1999/xlink" x="0px" y="0px"
	 viewBox="0 0 64 64" style="enable-background:new 0 0 64 64;" xml:space="preserve">
<g id="XMLID_3_">
	<path id="XMLID_4_" d="M16.5,16.2c-0.1-0.7-0.4-1.3-0.7-1.9c-0.3-0.6-0.7-1.1-1.3-1.4c-0.5-0.4-1.1-0.6-1.8-0.6
		c-1.7,0-2.9,1-3.7,2.9c-0.8,1.9-1.1,5.1-1.1,9.5c0,2.1,0.1,4,0.2,5.7c0.1,1.7,0.4,3.2,0.7,4.4c0.3,1.2,0.8,2.1,1.5,2.8s1.5,1,2.5,1
		c0.4,0,0.9-0.1,1.4-0.3c0.5-0.2,1-0.6,1.4-1c0.4-0.5,0.8-1,1.1-1.8c0.3-0.7,0.4-1.5,0.4-2.5v-3.6h-4.7V24H24v19h-5.2v-3.3h-0.1
		c-0.9,1.4-1.9,2.4-3.1,2.9c-1.2,0.6-2.6,0.9-4.3,0.9c-2.2,0-3.9-0.4-5.3-1.1c-1.4-0.8-2.4-1.9-3.2-3.5C2,37.3,1.4,35.3,1.2,33
		c-0.3-2.3-0.4-5-0.4-8.1c0-3,0.2-5.6,0.6-7.8c0.4-2.2,1-4.1,1.9-5.6C4.2,10.1,5.4,8.9,7,8.2C8.5,7.4,10.4,7,12.6,7
		c3.9,0,6.7,1,8.4,2.9c1.7,1.9,2.6,4.7,2.6,8.3h-6.8C16.8,17.5,16.7,16.9,16.5,16.2z"/>
	<path id="XMLID_6_" d="M35.2,32.3c0,0.9,0.1,1.7,0.2,2.4c0.1,0.7,0.3,1.4,0.6,1.9c0.3,0.5,0.7,1,1.3,1.3c0.5,0.3,1.2,0.5,2,0.5
		c0.9,0,1.5-0.2,2.1-0.5c0.5-0.3,0.9-0.7,1.3-1.3c0.3-0.5,0.5-1.2,0.6-1.9s0.2-1.6,0.2-2.4V7.7h7.1v24.6c0,2.2-0.3,4.1-0.9,5.5
		c-0.6,1.5-1.5,2.6-2.5,3.5s-2.3,1.4-3.6,1.7s-2.7,0.4-4.2,0.4c-1.4,0-2.8-0.1-4.2-0.4c-1.3-0.3-2.5-0.8-3.6-1.6
		c-1.1-0.8-1.9-1.9-2.5-3.4c-0.6-1.5-0.9-3.4-0.9-5.8V7.7h7.1V32.3z"/>
	<path id="XMLID_8_" d="M55.4,7.7h7.1v35.2h-7.1V7.7z"/>
</g>
<rect id="XMLID_2_" y="50.6" width="64" height="8.7"/>
</svg>
