<?xml version="1.0" encoding="utf-8"?>
<!-- Generator: Adobe Illustrator 19.0.0, SVG Export Plug-In . SVG Version: 6.00 Build 0)  -->
<svg version="1.1" id="Layer_1" xmlns="http://www.w3.org/2000/svg" xmlns:xlink="http://www.w3.org/1999/xlink" x="0px" y="0px"
	 width="32px" height="32px" viewBox="0 0 32 32" style="enable-background:new 0 0 32 32;" xml:space="preserve">
<g id="XMLID_2_">
	<path id="XMLID_3_" d="M14.7,14.1h-2.6L8.4,5.4v8.7H5.8V0.6h2.6l3.7,8.6l0-8.6h2.6V14.1z"/>
	<path id="XMLID_5_" d="M26.5,12.5c-0.2,0.2-0.4,0.4-0.7,0.6c-0.3,0.2-0.6,0.4-1,0.6c-0.4,0.2-0.8,0.3-1.3,0.4
		c-0.5,0.1-1,0.2-1.6,0.2c-0.8,0-1.5-0.1-2.1-0.4c-0.6-0.3-1.1-0.7-1.6-1.2c-0.4-0.5-0.8-1.1-1-1.9c-0.2-0.7-0.4-1.6-0.4-2.5V6.5
		c0-0.9,0.1-1.8,0.4-2.5c0.2-0.7,0.6-1.4,1-1.9c0.4-0.5,1-0.9,1.6-1.2c0.6-0.3,1.2-0.4,1.9-0.4c0.8,0,1.4,0.1,2,0.3
		c0.6,0.2,1,0.5,1.4,0.8c0.4,0.4,0.7,0.8,0.9,1.3c0.2,0.5,0.4,1.1,0.4,1.7h-2.5c-0.1-0.7-0.3-1.2-0.6-1.6c-0.3-0.3-0.8-0.5-1.5-0.5
		c-0.3,0-0.6,0.1-0.9,0.3c-0.3,0.2-0.5,0.4-0.7,0.7c-0.2,0.3-0.4,0.7-0.5,1.2s-0.2,1-0.2,1.7v1.8c0,1.3,0.2,2.2,0.6,2.9
		c0.4,0.7,1,1,1.9,1c0.2,0,0.4,0,0.6,0c0.2,0,0.4-0.1,0.6-0.1c0.2-0.1,0.3-0.1,0.5-0.2c0.1-0.1,0.2-0.1,0.3-0.2l0-2.4h-2.2V7.2h4.8
		L26.5,12.5z"/>
	<path id="XMLID_7_" d="M14.8,16.7l0,8.9c0,0.8-0.1,1.4-0.3,2c-0.2,0.6-0.5,1.1-0.9,1.5c-0.4,0.4-0.9,0.7-1.4,0.9
		c-0.6,0.2-1.2,0.3-1.9,0.3c-0.7,0-1.3-0.1-1.8-0.3c-0.5-0.2-1-0.5-1.4-0.9c-0.4-0.4-0.7-0.9-0.9-1.5s-0.3-1.3-0.3-2l0-8.9h2.6
		l0,8.9c0,0.9,0.2,1.5,0.5,2c0.3,0.4,0.8,0.7,1.4,0.7c0.6,0,1.1-0.2,1.5-0.7c0.3-0.4,0.5-1.1,0.5-2l0-8.9H14.8z"/>
	<path id="XMLID_9_" d="M17.8,16.7h7.8v2.1h-2.6V28h2.6v2.1h-7.8V28h2.6v-9.3h-2.6V16.7z"/>
</g>
</svg>
